<?xml version="1.0" encoding="UTF-8"?>
<svg width="37px" height="37px" viewBox="0 0 37 37" version="1.1" xmlns="http://www.w3.org/2000/svg" xmlns:xlink="http://www.w3.org/1999/xlink">
    <title>Group Copy</title>
    <g id="Layout01" stroke="none" stroke-width="1" fill="none" fill-rule="evenodd">
        <g id="iPhone-8" transform="translate(-20.000000, -25.000000)">
            <g id="Group-Copy" transform="translate(20.000000, 25.000000)">
                <rect id="Rectangle" fill="#FFFFFF" x="0" y="0" width="37" height="37"></rect>
                <path d="M25.0167508,17.3229562 L18.7587963,11.0093394 C18.3031846,10.5496752 18.3031846,9.80441232 18.7587963,9.34474814 C19.214408,8.88508395 19.9531005,8.88508395 20.4087121,9.34474814 L28.6582912,17.6677044 C28.8694164,17.8807074 29,18.1749683 29,18.5 C29,18.8250317 28.8694164,19.1192926 28.6582912,19.3322956 L20.4087121,27.6552519 C19.9531005,28.114916 19.214408,28.114916 18.7587963,27.6552519 C18.3031846,27.1955877 18.3031846,26.4503248 18.7587963,25.9906606 L25.0167508,19.6770438 L9.16666667,19.6770438 C8.52233446,19.6770438 8,19.1500633 8,18.5 C8,17.8499367 8.52233446,17.3229562 9.16666667,17.3229562 L25.0167508,17.3229562 Z" id="Path" fill="#1021FF" transform="translate(18.500000, 18.500000) scale(-1, 1) translate(-18.500000, -18.500000) "></path>
            </g>
        </g>
    </g>
</svg>