<?xml version="1.0" encoding="UTF-8"?>
<svg width="18px" height="18px" viewBox="0 0 18 18" version="1.1" xmlns="http://www.w3.org/2000/svg" xmlns:xlink="http://www.w3.org/1999/xlink">
    <!-- Generator: Sketch 64 (93537) - https://sketch.com -->
    <title>Group 2</title>
    <desc>Created with Sketch.</desc>
    <g id="Symbols" stroke="none" stroke-width="1" fill="none" fill-rule="evenodd">
        <g id="input/textfield/password" transform="translate(0.000000, -7.000000)">
            <g id="Group-2" transform="translate(0.000000, 7.000000)">
                <rect id="Rectangle" fill="#FFFFFF" x="0" y="0" width="18" height="18"></rect>
                <path d="M6.99873039,0 C9.04214706,0 10.7046127,1.66809375 10.7046127,3.71847656 L10.7046127,3.71847656 L10.7046127,5.0625 L9.33206373,5.0625 L9.33206373,3.71847656 C9.33206373,2.4435 8.28532353,1.40625 6.99873039,1.40625 C5.71213725,1.40625 4.66539706,2.4435 4.66539706,3.71847656 L4.66539706,3.71847656 L4.66539706,6.609375 L11.9411765,6.609375 C13.0764118,6.609375 14,7.55564062 14,8.71875 L14,8.71875 L14,15.890625 C14,17.0537344 13.0764118,18 11.9411765,18 L11.9411765,18 L2.05882353,18 C0.923588235,18 0,17.0537344 0,15.890625 L0,15.890625 L0,8.71875 C0,7.55564062 0.923588235,6.609375 2.05882353,6.609375 L2.05882353,6.609375 L3.29284804,6.609375 L3.29284804,3.71847656 C3.29284804,1.66809375 4.95531373,0 6.99873039,0 Z M11.9411765,8.015625 L2.05882353,8.015625 C1.68041176,8.015625 1.37254902,8.33104687 1.37254902,8.71875 L1.37254902,8.71875 L1.37254902,15.890625 C1.37254902,16.2783281 1.68041176,16.59375 2.05882353,16.59375 L2.05882353,16.59375 L11.9411765,16.59375 C12.3195882,16.59375 12.627451,16.2783281 12.627451,15.890625 L12.627451,15.890625 L12.627451,8.71875 C12.627451,8.33104687 12.3195882,8.015625 11.9411765,8.015625 L11.9411765,8.015625 Z M7,10.0546875 C7.70120098,10.0546875 8.26960784,10.6370508 8.26960784,11.3554688 C8.26960784,11.8153125 8.03651471,12.219082 7.6850049,12.4504102 L7.6850049,12.4504102 L7.6850049,13.9921875 C7.6850049,14.3804883 7.37772549,14.6953125 6.99873039,14.6953125 C6.61970098,14.6953125 6.31245588,14.3804883 6.31245588,13.9921875 L6.31245588,13.9921875 L6.31245588,12.4487578 C5.96235294,12.2171484 5.73039216,11.8141875 5.73039216,11.3554688 C5.73039216,10.6370508 6.29879902,10.0546875 7,10.0546875 Z" id="Combined-Shape" fill="#1021FF" fill-rule="nonzero"></path>
            </g>
        </g>
    </g>
</svg>