<?xml version="1.0" encoding="UTF-8"?>
<svg width="18px" height="18px" viewBox="0 0 18 18" version="1.1" xmlns="http://www.w3.org/2000/svg" xmlns:xlink="http://www.w3.org/1999/xlink">
    <!-- Generator: Sketch 64 (93537) - https://sketch.com -->
    <title>Shape</title>
    <desc>Created with Sketch.</desc>
    <g id="Symbols" stroke="none" stroke-width="1" fill="none" fill-rule="evenodd">
        <g id="input/textfield/email" transform="translate(-1.000000, -7.000000)" fill="#1021FF" fill-rule="nonzero">
            <g id="Group" transform="translate(0.000000, 7.000000)">
                <path d="M19,9 C19,9.38833594 18.6852109,9.703125 18.296875,9.703125 C17.9085391,9.703125 17.59375,9.38833594 17.59375,9 C17.59375,4.81278516 14.1872148,1.40625 10,1.40625 C5.81278516,1.40625 2.40625,4.81278516 2.40625,9 C2.40625,13.1872148 5.81278516,16.59375 10,16.59375 C11.2250195,16.59375 12.3940703,16.3112695 13.474668,15.7541133 C13.8198672,15.5761172 14.2438867,15.7116797 14.4218125,16.0568438 C14.5997734,16.4019727 14.4642109,16.8260625 14.119082,17.0039883 C12.8553555,17.6555742 11.4309648,18 10,18 C7.59601562,18 5.33592578,17.0638242 3.63601562,15.3639844 C1.93617578,13.6640742 1,11.4039844 1,9 C1,6.59601562 1.93617578,4.33592578 3.63601562,2.63601563 C5.33592578,0.936175781 7.59601562,0 10,0 C12.4039844,0 14.6640742,0.936175781 16.3639844,2.63601563 C18.0638242,4.33592578 19,6.59601562 19,9 Z M18.1513984,11.5587422 C18.4313125,11.8278984 18.4400313,12.2729766 18.1709102,12.5529258 C17.6054922,13.1409844 16.8448867,13.4648438 16.0292969,13.4648438 C14.8933281,13.4648438 13.9046992,12.8236641 13.4050938,11.8844648 C12.5854609,12.8505234 11.3632188,13.4648438 10,13.4648438 C7.53807813,13.4648438 5.53515625,11.4619219 5.53515625,9 C5.53515625,6.53807813 7.53807813,4.53515625 10,4.53515625 C12.4619219,4.53515625 14.4648438,6.53807813 14.4648438,9 L14.4648438,10.4941406 C14.4648438,11.3567695 15.166668,12.0585938 16.0292969,12.0585938 C16.4588359,12.0585938 16.8593711,11.8879805 17.1572148,11.5782539 C17.4263008,11.2983398 17.8714492,11.2895859 18.1513984,11.5587422 Z M13.0585938,9 C13.0585938,7.31348438 11.6865156,5.94140625 10,5.94140625 C8.31348438,5.94140625 6.94140625,7.31348438 6.94140625,9 C6.94140625,10.6865156 8.31348438,12.0585938 10,12.0585938 C11.6865156,12.0585938 13.0585938,10.6865156 13.0585938,9 Z" id="Shape"></path>
            </g>
        </g>
    </g>
</svg>