<?xml version="1.0" encoding="UTF-8"?>
<svg width="18px" height="18px" viewBox="0 0 18 18" version="1.1" xmlns="http://www.w3.org/2000/svg" xmlns:xlink="http://www.w3.org/1999/xlink">
    <!-- Generator: Sketch 64 (93537) - https://sketch.com -->
    <title>Group 2</title>
    <desc>Created with Sketch.</desc>
    <defs>
        <path d="M3,4.73684211 C3,2.12075645 5.23857625,0 8,0 C10.7614237,0 13,2.12075645 13,4.73684211 C13,6.38742804 12.1088635,7.84083242 10.7575208,8.68880534 C14.886699,9.4631793 16,12.9134658 16,17.0526316 C16,17.5758487 15.5522847,18 15,18 L1,18 C0.44771525,18 0,17.5758487 0,17.0526316 C0,12.9134658 1.11330103,9.4631793 5.24247919,8.68880534 C3.89113654,7.84083242 3,6.38742804 3,4.73684211 Z M8,7.57894737 C9.65685425,7.57894737 11,6.3064935 11,4.73684211 C11,3.16719071 9.65685425,1.89473684 8,1.89473684 C6.34314575,1.89473684 5,3.16719071 5,4.73684211 C5,6.3064935 6.34314575,7.57894737 8,7.57894737 Z M13.9291111,16.1052632 C13.4438815,12.8915108 12.5264719,10.4210526 9,10.4210526 L7,10.4210526 C3.47352809,10.4210526 2.55611852,12.8915108 2.07088886,16.1052632 L13.9291111,16.1052632 Z" id="path-1"></path>
    </defs>
    <g id="Symbols" stroke="none" stroke-width="1" fill="none" fill-rule="evenodd">
        <g id="input/textfield/name" transform="translate(0.000000, -7.000000)">
            <g id="Group-2" transform="translate(0.000000, 7.000000)">
                <rect id="Rectangle" fill="#FFFFFF" x="0" y="0" width="18" height="18"></rect>
                <mask id="mask-2" fill="white">
                    <use xlink:href="#path-1"></use>
                </mask>
                <use id="Shape" fill="#1021FF" fill-rule="nonzero" xlink:href="#path-1"></use>
            </g>
        </g>
    </g>
</svg>