<?xml version="1.0" encoding="UTF-8"?>
<svg width="50px" height="37px" viewBox="0 0 50 37" version="1.1" xmlns="http://www.w3.org/2000/svg" xmlns:xlink="http://www.w3.org/1999/xlink">
    <title>Group 17</title>
    <g id="Layout01" stroke="none" stroke-width="1" fill="none" fill-rule="evenodd">
        <g id="iPhone-8" transform="translate(-163.000000, -25.000000)" fill="#FFFFFF">
            <g id="Group-17" transform="translate(163.000000, 25.000000)">
                <path d="M0,2.66453526e-14 L34.8064909,2.66453526e-14 L50,18.4210526 L50,36.8421053 L15.1935091,36.8421053 L0,18.4210526 L0,2.66453526e-14 Z M47.6175349,20.8029142 L17.5759742,20.8029142 L17.5759742,34.4602437 L47.6175349,34.4602437 L47.6175349,20.8029142 Z M24.9276922,23.6261347 C27.4053235,23.6261347 29.1586854,24.8074057 29.1586854,27.2590029 C29.1586854,30.7648384 26.5666958,32.8988541 23.3395145,32.8988541 L20.5062341,32.8988541 L22.1452377,23.6261347 L24.9276922,23.6261347 Z M35.3214342,23.6260156 L37.0495156,32.8988673 L34.9783593,32.8988673 L34.5718843,30.4472701 L31.7638845,30.4472701 L30.4679558,32.8988673 L28.4731708,32.8988673 L33.4538464,23.6260156 L35.3214342,23.6260156 Z M39.4386648,23.6260685 L40.7600064,27.0937943 L43.3137442,23.6260685 L45.4737135,23.6260685 L41.395198,28.9356349 L40.696474,32.8987879 L38.7525148,32.8987879 L39.4512389,28.9356349 L37.2785631,23.6260685 L39.4386648,23.6260685 Z M24.6481496,25.2774264 L23.8223608,25.2774264 L22.7550164,31.24743 L23.4792858,31.24743 C25.7153616,31.24743 27.1384874,29.5326221 27.1384874,27.5892877 C27.1384874,26.0140832 26.2872856,25.2774264 24.6481496,25.2774264 Z M33.9365602,26.0649095 L32.5643927,28.8466592 L34.3304611,28.8466592 L33.9365602,26.0649095 Z M32.4240258,2.38170758 L2.38246506,2.38170758 L2.38246506,16.0393451 L32.4240258,16.0393451 L32.4240258,2.38170758 Z M10.7958862,4.69087153 C12.675119,4.69087153 13.5386111,5.76840407 13.5386111,7.03595737 C13.5386111,9.10215242 11.8370238,10.4964743 9.76744709,10.4964743 L8.59919312,10.4964743 L7.97710317,13.9443143 L6.00898148,13.9443143 L7.64694444,4.69087153 L10.7958862,4.69087153 Z M18.529127,4.69083192 L20.2561111,13.9444067 L18.1862698,13.9444067 L17.7800529,11.4979061 L14.973836,11.4979061 L13.6787302,13.9444067 L11.6852116,13.9444067 L16.6627249,4.69083192 L18.529127,4.69083192 Z M22.6437434,4.69087153 L23.964246,8.15138842 L26.5163624,4.69087153 L28.6749603,4.69087153 L24.5990344,9.98940011 L23.900754,13.9443143 L21.9580291,13.9443143 L22.6563095,9.98940011 L20.4850132,4.69087153 L22.6437434,4.69087153 Z M17.1451323,7.12465573 L15.773836,9.90062252 L17.5387831,9.90062252 L17.1451323,7.12465573 Z M10.2244577,6.27534616 L9.32300265,6.27534616 L8.86585979,8.89932277 L9.81824074,8.89932277 C10.7831878,8.89932277 11.5830556,8.27815695 11.5830556,7.28949444 C11.5830556,6.65565176 11.1514418,6.27534616 10.2244577,6.27534616 Z" id="Combined-Shape"></path>
            </g>
        </g>
    </g>
</svg>