<?xml version="1.0" encoding="UTF-8"?>
<svg width="21px" height="21px" viewBox="0 0 21 21" version="1.1" xmlns="http://www.w3.org/2000/svg" xmlns:xlink="http://www.w3.org/1999/xlink">
    <title>Combined Shape</title>
    <g id="Layout01" stroke="none" stroke-width="1" fill="none" fill-rule="evenodd">
        <g id="iPhone-8" transform="translate(-328.000000, -33.000000)" fill="#1021FF" fill-rule="nonzero">
            <g id="Group" transform="translate(319.000000, 25.000000)">
                <path d="M22.1250897,8 C22.6083391,8 23.000082,8.39174023 23.000082,8.87498633 L23.000082,8.87498633 L23.000082,15.0000137 C23.000082,15.4832598 22.6083391,15.875 22.1250897,15.875 C21.6418403,15.875 21.2500974,15.4832598 21.2500974,15.0000137 L21.2500974,15.0000137 L21.2500974,9.75001367 L10.7500256,9.75001367 L10.7500256,27.2499863 L21.2500974,27.2499863 L21.2500974,21.9999863 C21.2500974,21.5167402 21.6418403,21.125 22.1250897,21.125 C22.6083391,21.125 23.000082,21.5167402 23.000082,21.9999863 L23.000082,21.9999863 L23.000082,28.1250137 C23.000082,28.6082598 22.6083391,29 22.1250897,29 L22.1250897,29 L9.87499231,29 C9.39174291,29 9,28.6082598 9,28.1249727 L9,28.1249727 L9,8.87498633 C9,8.39174023 9.39174291,8 9.87499231,8 L9.87499231,8 Z M25.006375,14.381334 C25.3480786,14.0396328 25.9021214,14.0396328 26.2438249,14.381334 L26.2438249,14.381334 L29.7438352,17.8813203 C29.7441223,17.8816074 29.7444094,17.8819355 29.7446965,17.8822637 C29.7647533,17.9023613 29.7837847,17.9234844 29.8017906,17.9454277 C29.8101169,17.9555996 29.8173767,17.9663047 29.8252107,17.9767637 C29.8344803,17.9891504 29.844078,18.001291 29.8527324,18.0142109 C29.8610586,18.0266797 29.8683184,18.0396406 29.8759474,18.0524375 C29.8829201,18.064127 29.8902619,18.0755703 29.8967014,18.0875879 C29.9037152,18.1006309 29.9096215,18.114084 29.9158969,18.1274141 L29.9158969,18.1274141 L29.9334517,18.1651895 C29.9387838,18.1781094 29.9430904,18.1913164 29.9478073,18.2044414 C29.9527702,18.2182227 29.9580612,18.2318809 29.9623269,18.2459902 L29.9623269,18.2459902 L29.9725399,18.2857344 C29.9761903,18.3001309 29.9802098,18.3143223 29.983122,18.3290059 C29.9861981,18.3443457 29.9880028,18.3598906 29.9902177,18.3753535 C29.9920634,18.3881504 29.9944834,18.4007012 29.9957549,18.4136211 C30.001415,18.471043 30.001415,18.528916 29.9957549,18.5863379 C29.9944834,18.5992988 29.9920224,18.6118496 29.9902177,18.6246055 C29.9879618,18.6400684 29.9861571,18.6555723 29.983122,18.6709531 C29.9802098,18.6855957 29.9761903,18.6998281 29.9725399,18.7142246 C29.9692176,18.7274727 29.9663054,18.7408437 29.9623269,18.7539687 C29.9580612,18.7680781 29.9527702,18.7816953 29.9478073,18.7955176 C29.9431314,18.8086426 29.9387838,18.8218496 29.9334517,18.8347695 L29.9334517,18.8347695 L29.9158969,18.8725449 C29.9096215,18.885875 29.9036741,18.8993281 29.8967014,18.9123711 C29.8902619,18.9243887 29.8829201,18.935832 29.8759474,18.9475215 C29.8683184,18.9603184 29.8610996,18.9732793 29.8527324,18.985748 C29.8441191,18.998668 29.8344803,19.0108086 29.8252107,19.0231953 C29.8173767,19.0336543 29.8101579,19.0443594 29.8017906,19.0545313 C29.7837847,19.0764746 29.7647533,19.0975977 29.7446965,19.1178184 C29.7444094,19.1181055 29.7441633,19.1184336 29.7438352,19.1187617 L29.7438352,19.1187617 L26.2438249,22.618748 C25.9021214,22.9604492 25.3480786,22.9604492 25.006375,22.618748 C24.6646715,22.2770469 24.6646715,21.7230078 25.006375,21.3813066 L25.006375,21.3813066 L27.0126681,19.3750273 L19.5000718,19.3750273 C19.0168224,19.3750273 18.6250795,18.9832871 18.6250795,18.500041 C18.6250795,18.0167949 19.0168224,17.6250581 19.5000718,17.6250581 L19.5000718,17.6250581 L27.0126681,17.6250581 L25.006375,15.6187754 C24.6646715,15.2770742 24.6646715,14.7230352 25.006375,14.381334 Z" id="Combined-Shape"></path>
            </g>
        </g>
    </g>
</svg>