<!-- <svg xmlns="http://www.w3.org/2000/svg" viewBox="0 0 841.9 595.3">
    <g fill="#61DAFB">
        <path d="M666.3 296.5c0-32.5-40.7-63.3-103.1-82.4 14.4-63.6 8-114.2-20.2-130.4-6.5-3.8-14.1-5.6-22.4-5.6v22.3c4.6 0 8.3.9 11.4 2.6 13.6 7.8 19.5 37.5 14.9 75.7-1.1 9.4-2.9 19.3-5.1 29.4-19.6-4.8-41-8.5-63.5-10.9-13.5-18.5-27.5-35.3-41.6-50 32.6-30.3 63.2-46.9 84-46.9V78c-27.5 0-63.5 19.6-99.9 53.6-36.4-33.8-72.4-53.2-99.9-53.2v22.3c20.7 0 51.4 16.5 84 46.6-14 14.7-28 31.4-41.3 49.9-22.6 2.4-44 6.1-63.6 11-2.3-10-4-19.7-5.2-29-4.7-38.2 1.1-67.9 14.6-75.8 3-1.8 6.9-2.6 11.5-2.6V78.5c-8.4 0-16 1.8-22.6 5.6-28.1 16.2-34.4 66.7-19.9 130.1-62.2 19.2-102.7 49.9-102.7 82.3 0 32.5 40.7 63.3 103.1 82.4-14.4 63.6-8 114.2 20.2 130.4 6.5 3.8 14.1 5.6 22.5 5.6 27.5 0 63.5-19.6 99.9-53.6 36.4 33.8 72.4 53.2 99.9 53.2 8.4 0 16-1.8 22.6-5.6 28.1-16.2 34.4-66.7 19.9-130.1 62-19.1 102.5-49.9 102.5-82.3zm-130.2-66.7c-3.7 12.9-8.3 26.2-13.5 39.5-4.1-8-8.4-16-13.1-24-4.6-8-9.5-15.8-14.4-23.4 14.2 2.1 27.9 4.7 41 7.9zm-45.8 106.5c-7.8 13.5-15.8 26.3-24.1 38.2-14.9 1.3-30 2-45.2 2-15.1 0-30.2-.7-45-1.9-8.3-11.9-16.4-24.6-24.2-38-7.6-13.1-14.5-26.4-20.8-39.8 6.2-13.4 13.2-26.8 20.7-39.9 7.8-13.5 15.8-26.3 24.1-38.2 14.9-1.3 30-2 45.2-2 15.1 0 30.2.7 45 1.9 8.3 11.9 16.4 24.6 24.2 38 7.6 13.1 14.5 26.4 20.8 39.8-6.3 13.4-13.2 26.8-20.7 39.9zm32.3-13c5.4 13.4 10 26.8 13.8 39.8-13.1 3.2-26.9 5.9-41.2 8 4.9-7.7 9.8-15.6 14.4-23.7 4.6-8 8.9-16.1 13-24.1zM421.2 430c-9.3-9.6-18.6-20.3-27.8-32 9 .4 18.2.7 27.5.7 9.4 0 18.7-.2 27.8-.7-9 11.7-18.3 22.4-27.5 32zm-74.4-58.9c-14.2-2.1-27.9-4.7-41-7.9 3.7-12.9 8.3-26.2 13.5-39.5 4.1 8 8.4 16 13.1 24 4.7 8 9.5 15.8 14.4 23.4zM420.7 163c9.3 9.6 18.6 20.3 27.8 32-9-.4-18.2-.7-27.5-.7-9.4 0-18.7.2-27.8.7 9-11.7 18.3-22.4 27.5-32zm-74 58.9c-4.9 7.7-9.8 15.6-14.4 23.7-4.6 8-8.9 16-13 24-5.4-13.4-10-26.8-13.8-39.8 13.1-3.1 26.9-5.8 41.2-7.9zm-90.5 125.2c-35.4-15.1-58.3-34.9-58.3-50.6 0-15.7 22.9-35.6 58.3-50.6 8.6-3.7 18-7 27.7-10.1 5.7 19.6 13.2 40 22.5 60.9-9.2 20.8-16.6 41.1-22.2 60.6-9.9-3.1-19.3-6.5-28-10.2zM310 490c-13.6-7.8-19.5-37.5-14.9-75.7 1.1-9.4 2.9-19.3 5.1-29.4 19.6 4.8 41 8.5 63.5 10.9 13.5 18.5 27.5 35.3 41.6 50-32.6 30.3-63.2 46.9-84 46.9-4.5-.1-8.3-1-11.3-2.7zm237.2-76.2c4.7 38.2-1.1 67.9-14.6 75.8-3 1.8-6.9 2.6-11.5 2.6-20.7 0-51.4-16.5-84-46.6 14-14.7 28-31.4 41.3-49.9 22.6-2.4 44-6.1 63.6-11 2.3 10.1 4.1 19.8 5.2 29.1zm38.5-66.7c-8.6 3.7-18 7-27.7 10.1-5.7-19.6-13.2-40-22.5-60.9 9.2-20.8 16.6-41.1 22.2-60.6 9.9 3.1 19.3 6.5 28.1 10.2 35.4 15.1 58.3 34.9 58.3 50.6-.1 15.7-23 35.6-58.4 50.6zM320.8 78.4z"/>
        <circle cx="420.9" cy="296.5" r="45.7"/>
        <path d="M520.5 78.1z"/>
    </g>
</svg> -->

<?xml version="1.0" encoding="UTF-8"?>
<svg width="50px" height="37px" viewBox="0 0 50 37" version="1.1" xmlns="http://www.w3.org/2000/svg" xmlns:xlink="http://www.w3.org/1999/xlink">
    <!-- Generator: Sketch 64 (93537) - https://sketch.com -->
    <title>Group 17</title>
    <desc>Created with Sketch.</desc>
    <g id="Layout01" stroke="none" stroke-width="1" fill="none" fill-rule="evenodd">
        <g id="Desktop-HD" transform="translate(-745.000000, -224.000000)" fill="#1021FF">
            <g id="Group-17" transform="translate(745.000000, 224.000000)">
                <path d="M34.8064909,0 L50,18.4210526 L0,18.4210526 L0,0 L34.8064909,0 Z M32.4240258,2.38170758 L2.38246506,2.38170758 L2.38246506,16.0393451 L32.4240258,16.0393451 L32.4240258,2.38170758 Z M10.7958862,4.69087153 C12.675119,4.69087153 13.5386111,5.76840407 13.5386111,7.03595737 C13.5386111,9.10215242 11.8370238,10.4964743 9.76744709,10.4964743 L8.59919312,10.4964743 L7.97710317,13.9443143 L6.00898148,13.9443143 L7.64694444,4.69087153 L10.7958862,4.69087153 Z M18.529127,4.69083192 L20.2561111,13.9444067 L18.1862698,13.9444067 L17.7800529,11.4979061 L14.973836,11.4979061 L13.6787302,13.9444067 L11.6852116,13.9444067 L16.6627249,4.69083192 L18.529127,4.69083192 Z M22.6437434,4.69087153 L23.964246,8.15138842 L26.5163624,4.69087153 L28.6749603,4.69087153 L24.5990344,9.98940011 L23.900754,13.9443143 L21.9580291,13.9443143 L22.6563095,9.98940011 L20.4850132,4.69087153 L22.6437434,4.69087153 Z M17.1451323,7.12465573 L15.773836,9.90062252 L17.5387831,9.90062252 L17.1451323,7.12465573 Z M10.2244577,6.27534616 L9.32300265,6.27534616 L8.86585979,8.89932277 L9.81824074,8.89932277 C10.7831878,8.89932277 11.5830556,8.27815695 11.5830556,7.28949444 C11.5830556,6.65565176 11.1514418,6.27534616 10.2244577,6.27534616 Z" id="Combined-Shape"></path>
                <path d="M50,18.4210526 L50,36.8421053 L15.1935091,36.8421053 L0,18.4210526 L50,18.4210526 Z M47.6175349,20.8029142 L17.5759742,20.8029142 L17.5759742,34.4602437 L47.6175349,34.4602437 L47.6175349,20.8029142 Z M24.9276922,23.6261347 C27.4053235,23.6261347 29.1586854,24.8074057 29.1586854,27.2590029 C29.1586854,30.7648384 26.5666958,32.8988541 23.3395145,32.8988541 L20.5062341,32.8988541 L22.1452377,23.6261347 L24.9276922,23.6261347 Z M35.3214342,23.6260156 L37.0495156,32.8988673 L34.9783593,32.8988673 L34.5718843,30.4472701 L31.7638845,30.4472701 L30.4679558,32.8988673 L28.4731708,32.8988673 L33.4538464,23.6260156 L35.3214342,23.6260156 Z M39.4386648,23.6260685 L40.7600064,27.0937943 L43.3137442,23.6260685 L45.4737135,23.6260685 L41.395198,28.9356349 L40.696474,32.8987879 L38.7525148,32.8987879 L39.4512389,28.9356349 L37.2785631,23.6260685 L39.4386648,23.6260685 Z M24.6481496,25.2774264 L23.8223608,25.2774264 L22.7550164,31.24743 L23.4792858,31.24743 C25.7153616,31.24743 27.1384874,29.5326221 27.1384874,27.5892877 C27.1384874,26.0140832 26.2872856,25.2774264 24.6481496,25.2774264 Z M33.9365602,26.0649095 L32.5643927,28.8466592 L34.3304611,28.8466592 L33.9365602,26.0649095 Z" id="Combined-Shape"></path>
            </g>
        </g>
    </g>
</svg>